<?xml version="1.0" standalone="no"?>
<svg
  width="600"
  height="600"
  viewBox="0 0 600 600"
  xmlns="http://www.w3.org/2000/svg"
>
  <g transform="translate(300,300)">
    <path d="M73.9,-116C112.9,-90,173.3,-98.4,194,-80.6C214.6,-62.7,195.4,-18.7,158.7,1.1C122,20.8,67.8,16.3,48.2,45.2C28.5,74.1,43.4,136.3,28.5,177.4C13.6,218.4,-31.1,238.3,-69.3,229.8C-107.5,221.4,-139.1,184.7,-141.3,143.8C-143.6,102.9,-116.3,57.9,-88.5,32.9C-60.6,8,-32.1,3.2,-33.6,-24.4C-35,-51.9,-66.5,-102.1,-65.8,-145.6C-65.2,-189.2,-32.6,-226.1,-7.6,-214.3C17.5,-202.5,35,-142.1,73.9,-116Z" fill="#FFB4BC" />
  </g>
</svg>
  